<svg width="25" height="25" viewBox="0 0 25 25" fill="none" xmlns="http://www.w3.org/2000/svg">
<path d="M10.379 24.5107V23.4334V20.0249V15.6523H8.25612C8.02775 15.6523 7.83337 15.4663 7.83337 15.2296V12.7091C7.83337 12.4723 8.02775 12.2864 8.25612 12.2864H10.379V10.5102C10.379 7.62602 12.5187 5.53711 15.4621 5.53711C16.5024 5.53711 17.0945 5.6301 17.4496 5.68089L17.6188 5.70629C17.8218 5.74008 17.9824 5.91766 17.9824 6.12923V8.4803C17.9824 8.59028 17.9402 8.70027 17.8556 8.77626C17.7794 8.85245 17.6696 8.90324 17.5596 8.90324L15.7835 8.89484C14.7346 8.89484 14.5824 10.1973 14.5824 10.9754V12.2864H17.1789C17.3059 12.2864 17.4242 12.337 17.5088 12.4385C17.585 12.5315 17.6188 12.6667 17.5934 12.7853L17.0945 15.3141C17.0605 15.5085 16.8829 15.6523 16.6799 15.6523H14.5824V20.0249V23.4334V24.5107" fill="#6E5AEA"/>
<path fill-rule="evenodd" clip-rule="evenodd" d="M25 12.5C25 5.59644 19.4036 0 12.5 0C5.59644 0 0 5.59644 0 12.5C0 19.4036 5.59644 25 12.5 25C19.4036 25 25 19.4036 25 12.5ZM2 12.5C2 6.70101 6.70101 2 12.5 2C18.299 2 23 6.70101 23 12.5C23 18.299 18.299 23 12.5 23C6.70101 23 2 18.299 2 12.5Z" fill="#6E5AEA"/>
</svg>
