<svg width="41" height="41" viewBox="0 0 41 41" fill="none" xmlns="http://www.w3.org/2000/svg">
<path d="M38.1602 28.9356C42.834 18.9662 38.5176 7.10696 28.4827 2.45091C18.4478 -2.20514 6.57082 2.09486 1.86953 12.0643C-2.83175 22.0337 1.53962 33.9203 11.547 38.5764C20.0149 42.5203 30.1048 40.0828 35.8233 32.7152H31.8093V28.9356H38.1602ZM24.3312 28.9356H20.0423V22.2254H14.5163V28.9356H10.1999V12.1465H14.5163V18.4458H20.0423V12.1465H24.3587V28.9356H24.3312ZM28.0153 11.7082C29.06 11.7082 29.9123 12.5573 29.9123 13.598C29.9123 14.6388 29.06 15.4879 28.0153 15.4879C26.9706 15.4879 26.1183 14.6388 26.1183 13.598C26.1183 12.5573 26.9706 11.7082 28.0153 11.7082ZM29.9123 28.963H26.1183V16.3643H29.9123V28.963Z" fill="#6E5AEA"/>
</svg>
