<svg width="25" height="25" viewBox="0 0 25 25" fill="none" xmlns="http://www.w3.org/2000/svg">
<path fill-rule="evenodd" clip-rule="evenodd" d="M17.2652 5.56818H7.7349C6.53829 5.56818 5.56824 6.53823 5.56824 7.73484V17.2651C5.56824 18.4617 6.53829 19.4318 7.7349 19.4318H17.2652C18.4618 19.4318 19.4318 18.4617 19.4318 17.2651V7.73484C19.4318 6.53823 18.4618 5.56818 17.2652 5.56818ZM6.90157 7.73484C6.90157 7.27461 7.27467 6.90151 7.7349 6.90151H17.2652C17.7254 6.90151 18.0985 7.27461 18.0985 7.73484V17.2651C18.0985 17.7254 17.7254 18.0984 17.2652 18.0984H7.7349C7.27467 18.0984 6.90157 17.7254 6.90157 17.2651V7.73484Z" fill="#6E5AEA"/>
<path fill-rule="evenodd" clip-rule="evenodd" d="M9.08032 12.5C9.08032 14.3887 10.6114 15.9197 12.5 15.9197C14.3887 15.9197 15.9197 14.3887 15.9197 12.5C15.9197 10.6114 14.3887 9.08032 12.5 9.08032C10.6114 9.08032 9.08032 10.6114 9.08032 12.5ZM14.5864 12.5C14.5864 13.6523 13.6523 14.5864 12.5 14.5864C11.3477 14.5864 10.4137 13.6523 10.4137 12.5C10.4137 11.3477 11.3477 10.4137 12.5 10.4137C13.6523 10.4137 14.5864 11.3477 14.5864 12.5Z" fill="#6E5AEA"/>
<circle cx="16.2495" cy="8.74658" r="1" fill="#6E5AEA"/>
<path fill-rule="evenodd" clip-rule="evenodd" d="M25 12.5C25 5.59644 19.4036 0 12.5 0C5.59644 0 0 5.59644 0 12.5C0 19.4036 5.59644 25 12.5 25C19.4036 25 25 19.4036 25 12.5ZM2 12.5C2 6.70101 6.70101 2 12.5 2C18.299 2 23 6.70101 23 12.5C23 18.299 18.299 23 12.5 23C6.70101 23 2 18.299 2 12.5Z" fill="#6E5AEA"/>
</svg>
