<svg width="25" height="25" viewBox="0 0 25 25" fill="none" xmlns="http://www.w3.org/2000/svg">
<path d="M18.8846 9.12673C18.8846 9.12673 18.8898 9.52839 18.8898 9.60523C18.8898 14.7617 14.864 18.9417 9.89846 18.9417C7.94613 18.9417 6.14063 18.2936 4.66663 17.1959C5.00846 17.2499 5.35813 17.2777 5.71479 17.2777C7.18046 17.2777 8.53946 16.8049 9.66063 15.9994C8.92646 15.9614 8.20129 15.6642 7.62429 15.1001C7.22429 14.7087 6.94379 14.2359 6.78179 13.7299C7.00846 13.7494 7.23529 13.7591 7.46213 13.7591C7.78346 13.7591 8.10446 13.7397 8.42363 13.7016C7.54763 13.5232 6.74613 12.9707 6.26413 12.1056C5.98879 11.6117 5.85046 11.0747 5.83496 10.5422C6.31313 10.7361 6.80763 10.8826 7.31096 10.9821C6.45546 10.3846 5.89263 9.37006 5.89263 8.21873C5.89263 7.64823 6.03146 7.11156 6.27446 6.64239C7.61613 8.38773 9.87196 9.84206 12.712 9.88039C12.712 9.88039 12.6578 9.45689 12.6578 9.23556C12.6578 7.44873 14.053 6.00006 15.7738 6.00006C16.6211 6.00006 17.3868 6.35256 17.9476 6.92273C18.6623 6.91406 19.3176 6.65489 19.8396 6.22656C19.6563 6.90739 19.2608 7.49339 18.736 7.91339C18.7413 7.94156 18.7483 7.96873 18.7528 7.99689C19.2958 7.96389 19.8075 7.78739 20.247 7.49589C19.9833 8.19423 19.4953 8.76489 18.8846 9.12673Z" fill="#6E5AEA"/>
<path fill-rule="evenodd" clip-rule="evenodd" d="M25 12.5C25 5.59644 19.4036 0 12.5 0C5.59644 0 0 5.59644 0 12.5C0 19.4036 5.59644 25 12.5 25C19.4036 25 25 19.4036 25 12.5ZM2 12.5C2 6.70101 6.70101 2 12.5 2C18.299 2 23 6.70101 23 12.5C23 18.299 18.299 23 12.5 23C6.70101 23 2 18.299 2 12.5Z" fill="#6E5AEA"/>
</svg>
